<svg xmlns="http://www.w3.org/2000/svg" width="1200" height="520" viewBox="0 0 1200 520">
<rect width="100%" height="100%" fill="#ffffff" />
<style>text{font-family:Arial,Helvetica,sans-serif;fill:#1f2937}.title{font-size:22px;font-weight:700}.label{font-size:12px}.axis{stroke:#374151;stroke-width:1}</style>
<text x="70" y="34" class="title">S13 Accepted-Reward Gap Histogram</text>
<line x1="70" y1="405" x2="1130" y2="405" class="axis" />
<line x1="70" y1="65" x2="70" y2="405" class="axis" />
<rect x="610" y="18" width="14" height="14" fill="#64748b" /><text x="630" y="30" class="label">baseline</text><text x="610" y="49" class="label">mean 38.13%, std 8.48%</text>
<rect x="830" y="18" width="14" height="14" fill="#0891b2" /><text x="850" y="30" class="label">proposed 10s</text><text x="830" y="49" class="label">mean 1.19%, std 1.88%</text>
<rect x="77.95" y="405.00" width="18.55" height="1.00" fill="#64748b" />
<rect x="96.50" y="65.00" width="18.55" height="340.00" fill="#0891b2" />
<rect x="130.95" y="405.00" width="18.55" height="1.00" fill="#64748b" />
<rect x="149.50" y="381.55" width="18.55" height="23.45" fill="#0891b2" />
<rect x="183.95" y="405.00" width="18.55" height="1.00" fill="#64748b" />
<rect x="202.50" y="399.14" width="18.55" height="5.86" fill="#0891b2" />
<rect x="236.95" y="405.00" width="18.55" height="1.00" fill="#64748b" />
<rect x="255.50" y="399.14" width="18.55" height="5.86" fill="#0891b2" />
<rect x="289.95" y="405.00" width="18.55" height="1.00" fill="#64748b" />
<rect x="308.50" y="405.00" width="18.55" height="1.00" fill="#0891b2" />
<rect x="342.95" y="396.21" width="18.55" height="8.79" fill="#64748b" />
<rect x="361.50" y="405.00" width="18.55" height="1.00" fill="#0891b2" />
<rect x="395.95" y="399.14" width="18.55" height="5.86" fill="#64748b" />
<rect x="414.50" y="405.00" width="18.55" height="1.00" fill="#0891b2" />
<rect x="448.95" y="396.21" width="18.55" height="8.79" fill="#64748b" />
<rect x="467.50" y="405.00" width="18.55" height="1.00" fill="#0891b2" />
<rect x="501.95" y="384.48" width="18.55" height="20.52" fill="#64748b" />
<rect x="520.50" y="405.00" width="18.55" height="1.00" fill="#0891b2" />
<rect x="554.95" y="399.14" width="18.55" height="5.86" fill="#64748b" />
<rect x="573.50" y="405.00" width="18.55" height="1.00" fill="#0891b2" />
<rect x="607.95" y="366.90" width="18.55" height="38.10" fill="#64748b" />
<rect x="626.50" y="405.00" width="18.55" height="1.00" fill="#0891b2" />
<rect x="660.95" y="358.10" width="18.55" height="46.90" fill="#64748b" />
<rect x="679.50" y="405.00" width="18.55" height="1.00" fill="#0891b2" />
<rect x="713.95" y="372.76" width="18.55" height="32.24" fill="#64748b" />
<rect x="732.50" y="405.00" width="18.55" height="1.00" fill="#0891b2" />
<rect x="766.95" y="346.38" width="18.55" height="58.62" fill="#64748b" />
<rect x="785.50" y="405.00" width="18.55" height="1.00" fill="#0891b2" />
<rect x="819.95" y="343.45" width="18.55" height="61.55" fill="#64748b" />
<rect x="838.50" y="405.00" width="18.55" height="1.00" fill="#0891b2" />
<rect x="872.95" y="366.90" width="18.55" height="38.10" fill="#64748b" />
<rect x="891.50" y="405.00" width="18.55" height="1.00" fill="#0891b2" />
<rect x="925.95" y="372.76" width="18.55" height="32.24" fill="#64748b" />
<rect x="944.50" y="405.00" width="18.55" height="1.00" fill="#0891b2" />
<rect x="978.95" y="399.14" width="18.55" height="5.86" fill="#64748b" />
<rect x="997.50" y="405.00" width="18.55" height="1.00" fill="#0891b2" />
<rect x="1031.95" y="399.14" width="18.55" height="5.86" fill="#64748b" />
<rect x="1050.50" y="405.00" width="18.55" height="1.00" fill="#0891b2" />
<rect x="1084.95" y="399.14" width="18.55" height="5.86" fill="#64748b" />
<rect x="1103.50" y="405.00" width="18.55" height="1.00" fill="#0891b2" />
<text x="70.00" y="427" text-anchor="middle" class="label">0.0%</text>
<text x="282.00" y="427" text-anchor="middle" class="label">11.8%</text>
<text x="494.00" y="427" text-anchor="middle" class="label">23.6%</text>
<text x="706.00" y="427" text-anchor="middle" class="label">35.4%</text>
<text x="918.00" y="427" text-anchor="middle" class="label">47.2%</text>
<text x="1130.00" y="427" text-anchor="middle" class="label">58.9%</text>
<text x="14" y="77" class="label">max 116</text>
</svg>
