<svg xmlns="http://www.w3.org/2000/svg" width="1100" height="520" viewBox="0 0 1100 520">
<rect width="100%" height="100%" fill="#ffffff" />
<style>text{font-family:Arial,Helvetica,sans-serif;fill:#1f2937}.title{font-size:22px;font-weight:700}.label{font-size:12px}.axis{stroke:#374151;stroke-width:1}</style>
<text x="70" y="34" class="title">S14 Accepted-Reward Gap Histogram</text>
<line x1="70" y1="405" x2="1070" y2="405" class="axis" />
<line x1="70" y1="65" x2="70" y2="405" class="axis" />
<rect x="650" y="18" width="14" height="14" fill="#64748b" /><text x="670" y="30" class="label">algo_naive</text><text x="650" y="49" class="label">mean 6.21%, std 12.65%</text>
<rect x="870" y="18" width="14" height="14" fill="#0891b2" /><text x="890" y="30" class="label">algo_union</text><text x="870" y="49" class="label">mean 0.13%, std 0.42%</text>
<rect x="77.50" y="142.64" width="17.50" height="262.36" fill="#64748b" />
<rect x="95.00" y="65.00" width="17.50" height="340.00" fill="#0891b2" />
<rect x="127.50" y="396.97" width="17.50" height="8.03" fill="#64748b" />
<rect x="145.00" y="402.32" width="17.50" height="2.68" fill="#0891b2" />
<rect x="177.50" y="405.00" width="17.50" height="1.00" fill="#64748b" />
<rect x="195.00" y="405.00" width="17.50" height="1.00" fill="#0891b2" />
<rect x="227.50" y="399.65" width="17.50" height="5.35" fill="#64748b" />
<rect x="245.00" y="405.00" width="17.50" height="1.00" fill="#0891b2" />
<rect x="277.50" y="402.32" width="17.50" height="2.68" fill="#64748b" />
<rect x="295.00" y="405.00" width="17.50" height="1.00" fill="#0891b2" />
<rect x="327.50" y="402.32" width="17.50" height="2.68" fill="#64748b" />
<rect x="345.00" y="405.00" width="17.50" height="1.00" fill="#0891b2" />
<rect x="377.50" y="405.00" width="17.50" height="1.00" fill="#64748b" />
<rect x="395.00" y="405.00" width="17.50" height="1.00" fill="#0891b2" />
<rect x="427.50" y="405.00" width="17.50" height="1.00" fill="#64748b" />
<rect x="445.00" y="405.00" width="17.50" height="1.00" fill="#0891b2" />
<rect x="477.50" y="394.29" width="17.50" height="10.71" fill="#64748b" />
<rect x="495.00" y="405.00" width="17.50" height="1.00" fill="#0891b2" />
<rect x="527.50" y="402.32" width="17.50" height="2.68" fill="#64748b" />
<rect x="545.00" y="405.00" width="17.50" height="1.00" fill="#0891b2" />
<rect x="577.50" y="399.65" width="17.50" height="5.35" fill="#64748b" />
<rect x="595.00" y="405.00" width="17.50" height="1.00" fill="#0891b2" />
<rect x="627.50" y="391.61" width="17.50" height="13.39" fill="#64748b" />
<rect x="645.00" y="405.00" width="17.50" height="1.00" fill="#0891b2" />
<rect x="677.50" y="399.65" width="17.50" height="5.35" fill="#64748b" />
<rect x="695.00" y="405.00" width="17.50" height="1.00" fill="#0891b2" />
<rect x="727.50" y="394.29" width="17.50" height="10.71" fill="#64748b" />
<rect x="745.00" y="405.00" width="17.50" height="1.00" fill="#0891b2" />
<rect x="777.50" y="402.32" width="17.50" height="2.68" fill="#64748b" />
<rect x="795.00" y="405.00" width="17.50" height="1.00" fill="#0891b2" />
<rect x="827.50" y="405.00" width="17.50" height="1.00" fill="#64748b" />
<rect x="845.00" y="405.00" width="17.50" height="1.00" fill="#0891b2" />
<rect x="877.50" y="399.65" width="17.50" height="5.35" fill="#64748b" />
<rect x="895.00" y="405.00" width="17.50" height="1.00" fill="#0891b2" />
<rect x="927.50" y="402.32" width="17.50" height="2.68" fill="#64748b" />
<rect x="945.00" y="405.00" width="17.50" height="1.00" fill="#0891b2" />
<rect x="977.50" y="405.00" width="17.50" height="1.00" fill="#64748b" />
<rect x="995.00" y="405.00" width="17.50" height="1.00" fill="#0891b2" />
<rect x="1027.50" y="402.32" width="17.50" height="2.68" fill="#64748b" />
<rect x="1045.00" y="405.00" width="17.50" height="1.00" fill="#0891b2" />
<text x="70.00" y="427" text-anchor="middle" class="label">0.0%</text>
<text x="270.00" y="427" text-anchor="middle" class="label">10.2%</text>
<text x="470.00" y="427" text-anchor="middle" class="label">20.4%</text>
<text x="670.00" y="427" text-anchor="middle" class="label">30.6%</text>
<text x="870.00" y="427" text-anchor="middle" class="label">40.8%</text>
<text x="1070.00" y="427" text-anchor="middle" class="label">51.0%</text>
<text x="14" y="77" class="label">max 127</text>
</svg>
